# xmcd CD database file
#
# Track frame offsets:
#	150
#	21977
#	44552
#	84124
#	122000
#	144683
#	150772
#	171104
#	192126
#	216191
#	243318
#	289492
#
# Disc length: 4062 seconds
#
# Revision: 0
# Processed by: cddbd v1.5.2PL0 Copyright (c) Steve Scherf et al.
# Submitted via: CDex 1.79
#
DISCID=a30fdc0c
DTITLE=Harmonie Municipale Luxembourg Rollingergrund - Happy Hour 2014
DYEAR=2014
DGENRE=Harmonie
TTITLE0=The Fives Prevail - L. Saucedo
TTITLE1=Fantasy - J. Langers
TTITLE2=Polovtsian Dances - A. Borodin
TTITLE3=Rainbow Warrior - K. Vlak
TTITLE4=Czardas - V. Monti
TTITLE5=1.Satz Suite Mexicana - K. Larson
TTITLE6=Lawrence Of Arabia - M. Jarre
TTITLE7=Rock It - T. Kleren
TTITLE8=New York - W. Baker
TTITLE9=Dance Fever - M. Brown
TTITLE10=Around The Whisky Jar - Trad, arrgt. I Boumans 
TTITLE11=Happy - P. Williams
EXTD=YEAR: 2014
EXTT0=
EXTT1=
EXTT2=
EXTT3=
EXTT4=
EXTT5=
EXTT6=
EXTT7=
EXTT8=
EXTT9=
EXTT10=
EXTT11=
PLAYORDER=
